<?xml version="1.0" encoding="UTF-8"?>
<svg version="1.1" viewBox="0 0 1600 1600" width="1280" height="1280" xmlns="http://www.w3.org/2000/svg">
<path transform="translate(872,205)" d="m0 0c1.01 0.186 1.01 0.186 2.05 0.376 17.5 3.23 34.6 7.18 51.6 12.3 11 3.29 22 5.74 33.2 7.99 4.97 1.01 9.85 2.24 14.7 3.62 2.22 0.624 4.45 1.19 6.69 1.73 2.19 0.557 4.37 1.17 6.52 1.88 3.18 1.06 6.38 1.97 9.61 2.87 10.7 3.03 21.1 6.42 31.3 10.8 2.49 1.04 4.97 2.02 7.5 2.96 11.4 4.25 23.2 8.76 32.8 16.4-0.596 2.69-1.2 5.38-1.81 8.06-0.166 0.752-0.331 1.5-0.502 2.28-0.845 3.68-1.78 7.04-3.38 10.5-1.43 2.94-1.43 2.94-1.3 5.31 1.52 2.85 3.66 4.73 6 6.94 5.48 5.29 10.3 11 15 16.9 0.632 0.753 1.26 1.51 1.91 2.28 50.6 60.8 67.8 145 61.1 222-5.67 57.1-27.5 111-64 156-0.532 0.649-1.06 1.3-1.61 1.97-11.8 14.3-24.8 27.7-39.4 39-1.71 1.44-3.42 2.87-5.12 4.31-26 21.2-55.9 37.1-86.9 49.7 5.35 3.8 10.8 7.51 16.2 11.1 7.22 4.77 14.4 9.64 21.4 14.7 0.721 0.514 1.44 1.03 2.19 1.56 4.28 3.1 8.26 6.4 12.2 9.92 1.93 1.66 3.91 3.17 5.97 4.67 4.4 3.24 8.32 6.89 12.3 10.7 0.737 0.7 1.47 1.4 2.23 2.12 2.18 2.08 4.35 4.16 6.52 6.25 0.606 0.582 1.21 1.16 1.83 1.76 5.67 5.47 11 11 15.7 17.3 1.37 1.77 2.79 3.3 4.41 4.84 0.681 0.681 1.36 1.36 2.06 2.06v2c0.99 0.33 1.98 0.66 3 1 0.926 1.3 1.84 2.62 2.68 3.98 2.39 3.67 5.08 7.13 7.71 10.6 1.61 2.39 1.61 2.39 1.61 4.39h2c7.5 13.5 7.5 13.5 8.76 15.8 0.797 1.43 1.6 2.85 2.42 4.27 12.6 22.1 22.4 47.4 27.1 72.4 0.633 3.17 1.41 6.24 2.28 9.36 1.64 6.26 2.22 12.6 2.79 19-0.00897 3.94-0.00897 3.94 1.65 7.23 0.26 2.33 0.438 4.63 0.566 6.97 0.0427 0.778 0.0853 1.56 0.129 2.36 0.381 8.18 0.363 16.4 0.332 24.5-0.00259 0.707-0.00518 1.41-0.00785 2.14-0.0265 6.66-0.0661 13.3-0.115 20-0.0267 3.68-0.0438 7.36-0.0549 11-0.00619 1.39-0.0162 2.78-0.0301 4.17-0.0192 1.93-0.025 3.86-0.0303 5.78-0.00746 1.09-0.0149 2.19-0.0226 3.31 0.0343 2.93 0.0343 2.93 2.23 5.71 0.737 2.74 1.39 5.45 2 8.22 0.406 1.78 0.812 3.57 1.22 5.35 0.325 1.44 0.325 1.44 0.657 2.91 7.39 32.7 15.7 65.1 24.1 97.5 0.267 1.03 0.533 2.06 0.808 3.12 11.3 43.4 23.9 86.8 42.2 128h-156c-9.32-21-9.32-21-12.4-29.7-0.337-0.909-0.674-1.82-1.02-2.76-1.77-4.88-3.04-9.39-3.54-14.6-3.45 0.701-3.45 0.701-7 2-1.21 2-1.21 2-2 4-1.33 0.333-2.67 0.667-4 1-0.287 0.612-0.575 1.22-0.871 1.86-1.37 2.61-2.69 3.43-5.19 4.96-3.22 2.04-6.23 4.16-9.19 6.56-4.57 3.61-9.41 6.61-14.4 9.6-2.13 1.28-4.25 2.59-6.34 3.92-24.1 15.3-50.3 26.8-77.5 35.3-2.36 0.749-4.71 1.53-7.06 2.32-52.9 17.7-109 23.1-165 22.7-3.44-0.0192-6.87-0.0232-10.3-0.0267-4.2-0.00521-8.39-0.0196-12.6-0.0344-0.762-0.00188-1.52-0.00376-2.31-0.0057-14.9-0.0477-29.9-0.166-44.7-2.57-1.79-0.276-3.59-0.551-5.38-0.824-1.34-0.206-1.34-0.206-2.71-0.416-2.53-0.366-5.05-0.679-7.58-0.967-13.4-1.55-26.7-3.89-40-6.36-0.921-0.169-1.84-0.338-2.79-0.513-10.4-1.92-20.7-4.03-31-6.71-2.9-0.737-5.79-1.35-8.73-1.9-2.98-0.567-5.76-1.28-8.62-2.29-5.47-1.86-11-3.44-16.6-5.03-9.21-2.66-18.3-5.51-27.4-8.62-0.697-0.218-1.39-0.435-2.11-0.659-3.82-1.21-7.37-2.51-10.9-4.38-14.9-7.54-29.8-6.76-46-6.05-1.65 0.066-3.29 0.0835-4.94 0.0909-2.03-2.03-1.37-6.08-1.5-8.88-0.225-5.64-0.225-5.64-1.5-11.1l-2.69-0.875c-4.07-1.38-6.15-3.26-9.31-6.12 1.55-6.17 3.37-12.2 5.56-18.1 1.66-4.55 3.05-8.94 3.93-13.7 0.504-2.18 0.504-2.18 2.03-5.83 2.49-7.44 1.88-15.4 1.85-23.2 0.00393-1.84 0.00917-3.67 0.0156-5.51 0.0139-5.06 0.00913-10.1 0.00137-15.2-0.00514-5.5 0.00709-11 0.0171-16.5 0.0152-9.64 0.0193-19.3 0.0161-28.9-0.00466-14.3 0.00781-28.7 0.0238-43 0.0267-24.1 0.039-48.2 0.0436-72.3 0.00458-23.9 0.0154-47.8 0.0344-71.6 5.9e-4 -0.742 0.00118-1.48 0.00179-2.25 0.00539-6.77 0.0109-13.5 0.0164-20.3 0.0138-16.8 0.0267-33.7 0.0389-50.5 5.57e-4 -0.767 0.00111-1.53 0.00169-2.32 0.027-37.3 0.0429-74.6 0.058-112 0.00523-12.9 0.0105-25.9 0.016-38.8 3.4e-4 -0.803 6.8e-4 -1.61 0.00103-2.43 0.0159-37.3 0.0396-74.6 0.0653-112 0.00167-2.42 0.00334-4.85 5e-3 -7.27 0.011-16.1 0.0222-32.1 0.0335-48.2 0.0224-31.9 0.0441-63.9 0.0651-95.8 1e-3 -1.52 0.00201-3.04 0.00301-4.56 0.0535-81 0.0936-162 0.157-304 4.04-1.68 7.77-2.61 12.1-3.33 0.693-0.117 1.39-0.233 2.1-0.354 2.29-0.382 4.58-0.755 6.86-1.13 1.2-0.196 1.2-0.196 2.42-0.396 99.5-16.3 201-22 419-7.79zm-108 129c-2.24 0.331-4.48 0.616-6.73 0.875-21.1 2.59-44.9 9.31-63.7 19.4-1.76 0.932-3.55 1.81-5.34 2.67-6.6 3.17-12.7 6.59-18.6 10.9-2.61 1.85-5.22 3.21-8.13 4.51v2c-1.05 0.34-1.05 0.34-2.12 0.688-3.48 1.59-6.05 3.8-8.88 6.31-0.643 0.54-1.29 1.08-1.95 1.64-3.93 3.33-7.4 6.76-10.7 10.7-1.98 2.35-4.2 4.45-6.37 6.62-1.36 1.65-2.69 3.31-4 5-0.598 0.722-1.2 1.44-1.81 2.19-5.38 6.92-10.1 14-14.2 21.8-0.619 1.15-1.24 2.3-1.88 3.49-4.88 9.26-8.47 18.6-11.5 28.6-0.518 1.66-1.08 3.3-1.66 4.93-1.11 3.53-1.83 7.08-2.5 10.7-0.126 0.652-0.251 1.3-0.381 1.98-4.64 25-5.15 58.4 4.94 82.3 0.62 2.02 1.22 4.04 1.81 6.06 5.19 16.8 13.4 33.6 25.2 46.9 0.704 0.799 1.41 1.6 2.13 2.42 1.38 1.55 2.77 3.1 4.17 4.63 1.7 1.95 1.7 1.95 3.7 4.95h2c0.272 0.596 0.544 1.19 0.824 1.8 3.58 6.69 10.6 11.2 16.6 15.6 2.31 1.73 4.5 3.43 6.52 5.49 3.06 3 6.53 5.36 10 7.81 1.14 0.798 1.14 0.798 2.3 1.61 6.44 4.48 13 8.65 19.8 12.6 1.01 0.599 1.01 0.599 2.05 1.21 3.67 2.17 7.35 4.33 11 6.48 3.01 1.76 5.97 3.59 8.93 5.44 5.68 3.43 11.7 6.11 17.7 8.89 3.59 1.66 7.12 3.43 10.6 5.24 16.6 8.38 33.9 15.7 51.1 22.7 1.8 0.741 3.6 1.49 5.39 2.25 3.09 1.3 6.18 2.57 9.28 3.84 0.957 0.407 1.91 0.814 2.9 1.23 5.62 2.26 9.94 3.33 15.9 1.7 0.871-0.237 1.74-0.475 2.64-0.719 3.06-0.891 6.08-1.85 9.11-2.84 1.1-0.359 2.21-0.719 3.34-1.09 52.4-17.3 100-49 127-98.3 0.508-0.924 0.508-0.924 1.03-1.87 9.19-17 16-35.3 20-54.1 0.196-0.907 0.392-1.81 0.594-2.75 6.39-31 5.77-65.3-0.594-96.3-0.182-0.905-0.364-1.81-0.551-2.74-5.27-25.3-15.1-50.9-31.4-71.3-0.571-0.759-1.14-1.52-1.73-2.3-4.43-5.87-9.26-11.3-14.3-16.7-1.03-1.11-1.03-1.11-2.08-2.25-12.2-12.7-27.1-22.7-42.3-31.6-0.971-0.572-1.94-1.14-2.94-1.73-17.2-10.1-36.1-10.5-55.7-11.5v-1c-38.3-0.713-38.3-0.713-76.5 2.63zm-22.5 518v1h-160v411c3.5 1.75 5.63 2.41 9.38 3 4.06 0.686 7.73 1.67 11.6 3 2.64 0.554 5.28 1.06 7.93 1.54 2.07 0.465 2.07 0.465 3.07 1.46 1.47 0.284 2.95 0.514 4.44 0.719 0.895 0.128 1.79 0.255 2.71 0.387 1.41 0.195 1.41 0.195 2.85 0.395 1.85 0.257 3.71 0.517 5.56 0.781 1.24 0.171 1.24 0.171 2.5 0.346 1.93 0.373 1.93 0.373 2.93 1.37 1.91 0.287 3.83 0.515 5.75 0.719 1.17 0.128 2.33 0.255 3.53 0.387 1.84 0.195 1.84 0.195 3.72 0.395 2.42 0.256 4.83 0.517 7.25 0.781 1.62 0.171 1.62 0.171 3.27 0.346 2.48 0.373 2.48 0.373 3.48 1.37 17.8 2.42 35.8 2.31 53.8 2.26 3.91-0.0114 7.82-0.00461 11.7 0.00687 29.5 0.363 29.5 0.363 58.5-3.81 2.23-0.525 4.47-0.939 6.72-1.32 12.4-2.17 24.3-5.2 36.2-9.14 0.677-0.223 1.35-0.447 2.05-0.677 6.95-2.32 13.7-4.97 20.3-8.09 1.72-0.807 3.45-1.59 5.19-2.34 8.49-3.69 16.4-8.28 24.4-12.9v-2c0.887-0.248 1.77-0.495 2.69-0.75 3.45-1.3 5.55-2.86 8.31-5.25 0.99-0.66 1.98-1.32 3-2v-2c0.718-0.232 1.44-0.463 2.18-0.702 3.37-1.55 5.37-3.45 7.99-6.07 0.477-0.473 0.954-0.946 1.45-1.43 1.53-1.53 3.05-3.07 4.57-4.61 0.516-0.52 1.03-1.04 1.56-1.58 12.7-11.5 12.7-11.5 20.8-25.9 0.228-0.857 0.228-0.857 0.461-1.73 0.99-0.33 1.98-0.66 3-1 1.59-2.34 1.59-2.34 3-5.19 0.523-1 1.05-2 1.59-3.04 0.467-0.917 0.933-1.83 1.41-2.78 0.536-1.03 1.07-2.06 1.62-3.12 1.88-3.92 3.62-7.9 5.38-11.9 1.02-2.29 2.05-4.57 3.07-6.86 1.86-4.29 3.3-8.37 4.3-13 0.821-3.73 1.67-7.43 2.71-11.1 0.183-0.669 0.366-1.34 0.555-2.03 0.52-1.89 1.06-3.77 1.59-5.65 3.06-15-1.29-29.4-4.73-44-0.556-2.39-1.11-4.79-1.67-7.18-9.17-39.3-20.5-77.7-39.1-114-0.471-0.913-0.942-1.83-1.43-2.77-7.58-14.3-16.9-24.7-30.3-33.7h-2v-2c-1.97-1.41-3.95-2.71-6-4-1.23-0.82-2.46-1.64-3.69-2.47-1.29-0.863-2.58-1.73-3.87-2.59-0.646-0.434-1.29-0.868-1.96-1.31-3.44-2.3-6.91-4.51-10.5-6.62-2.1-1.31-4.21-2.62-6.31-3.94-4.79-2.97-9.62-5.62-14.7-8.06-1.67-0.994-3.34-1.99-5-3-1.99-1.01-4-2.01-6-3-2.69-1.33-5.38-2.67-8.06-4-0.694-0.343-1.39-0.686-2.1-1.04-2.91-1.45-5.74-2.9-8.51-4.6-2.42-1.42-4.72-2.3-7.38-3.18-5.26-1.84-10.1-4.21-15-6.75-4.2-2.09-8.51-3.78-12.9-5.44-1.07-0.412-2.13-0.825-3.23-1.25-2.24-0.866-4.48-1.73-6.73-2.59-1.79-0.685-3.58-1.38-5.37-2.08-4.51-1.75-8.97-2.99-13.7-4.09z" fill="#5B6DA1"/>
<path transform="translate(927,218)" d="m0 0v1c-22.5-1.5-22.5-1.5-24-3-4.17-0.53-8.37-0.763-12.6-1.06-1.22-0.0909-2.45-0.182-3.71-0.275-7.99-0.561-15.9-0.811-23.9-0.537-2.84-0.125-2.84-0.125-5.84-2.12-2-0.332-2-0.332-4.22-0.335-0.855-0.023-1.71-0.0461-2.59-0.0698-0.93-0.0147-1.86-0.0295-2.82-0.0447-0.973-0.0222-1.95-0.0444-2.95-0.0672-3.18-0.0682-6.36-0.121-9.54-0.171-1.08-0.02-2.15-0.0399-3.26-0.0605-14-0.258-28-0.319-42.1 0.123-1.05 0.0319-1.05 0.0319-2.12 0.0644-6.67-0.434-6.67-0.434-12.4 1.56-2.18 0.242-4.36 0.422-6.55 0.578-1.4 0.106-2.8 0.214-4.2 0.322-0.743 0.0565-1.49 0.113-2.25 0.171-16.6 1.29-32.7 3.55-49 6.93-1.01 0.209-2.02 0.418-3.06 0.634-11.5 2.41-22.7 5.26-33.9 8.74-2.05 0.636-4.11 1.26-6.16 1.88-8.43 2.56-16.7 5.5-24.9 8.75-1.39 0.525-2.79 1.05-4.19 1.56-1.27 0.477-2.54 0.957-3.81 1.44-0.719 0.272-1.44 0.544-2.18 0.824-11 4.26-21.6 9.29-31.8 15.2-1.44 0.794-2.87 1.59-4.31 2.38-5.61 3.12-11.2 6.36-16.7 9.62-0.837 0.487-1.67 0.975-2.54 1.48-2.65 1.64-5.14 3.42-7.65 5.27-3.57 2.62-7.16 5.19-10.8 7.69-6.92 4.83-13.3 10.2-19.7 15.8-0.63 0.546-1.26 1.09-1.91 1.65-1.24 1.08-2.47 2.16-3.71 3.24-2.55 2.22-4.45 3.82-7.68 4.9-0.289 0.577-0.578 1.15-0.875 1.75-1.19 2.38-2.65 3.87-4.56 5.69-2.7 2.7-5.18 5.6-7.7 8.47-1.57 1.76-3.19 3.42-4.87 5.09-6.08 6.53-13 14-17 22h-2c-0.66 1.98-1.32 3.96-2 6h-2c-0.262 0.88-0.523 1.76-0.793 2.67-1.19 3.28-2.59 5.76-4.52 8.64-7.93 12.1-14.4 25.2-19.7 38.7-0.309 0.763-0.619 1.53-0.938 2.31-3.44 8.7-6.93 17.6-9.06 26.7-0.311 1.31-0.623 2.63-0.938 3.94-0.153 0.648-0.307 1.3-0.465 1.96-0.598 2.1-0.598 2.1-1.59 4.42-0.994 2.64-1.45 4.91-1.79 7.69-0.12 0.922-0.24 1.84-0.363 2.79-0.238 1.93-0.475 3.86-0.711 5.8l-0.363 2.78c-0.102 0.837-0.205 1.67-0.311 2.54-0.471 2.08-0.471 2.08-2.47 4.08-0.435 3.23-0.435 3.23-0.562 7.06-0.0361 0.7-0.0722 1.4-0.109 2.12-0.0768 1.49-0.15 2.99-0.219 4.48-0.182 3.9-0.394 7.81-0.609 11.7-0.0355 0.731-0.0711 1.46-0.108 2.22-0.28 5.18-0.28 5.18-1.39 7.41-0.0976 2.12-0.131 4.24-0.133 6.36-0.00129 1.28-0.00258 2.56-0.00391 3.88 0.00209 0.669 0.00419 1.34 0.00635 2.03 0.00532 2.03 6.56e-5 4.06-0.00635 6.08 0.00129 1.28 0.00258 2.57 0.00391 3.89 0.00113 1.18 0.00226 2.35 0.00342 3.56 0.116 2.88 0.528 5.39 1.13 8.2 0.172 1.82 0.313 3.64 0.43 5.46 1.02 15.2 1.02 15.2 3.78 30.2 1.11 4.65 1.91 9.34 2.7 14.1 0.597 3.36 1.16 5.35 3.09 8.24 0.537 2.24 1.01 4.49 1.44 6.75 1.05 5.16 2.3 9.52 4.56 14.2 0.67 2 1.34 4 2 6 3.39 9.09 7.14 17.6 12 26 0.794 1.44 1.59 2.87 2.38 4.31 0.409 0.727 0.817 1.45 1.24 2.2 1.04 1.86 2.05 3.72 3.05 5.59 4.9 8.93 10.6 16.9 16.9 25 1.52 1.97 3.01 3.97 4.49 5.97 8.02 10.7 17.2 20.3 26.6 29.8 0.858 0.867 1.72 1.73 2.6 2.63 5.2 5.18 10.6 9.93 16.3 14.5 1.94 1.56 3.84 3.15 5.71 4.8 7.6 6.69 15.7 12.4 24.1 18 4.17 2.79 8.24 5.7 12.3 8.65 4.29 3.11 8.61 5.9 13.3 8.36 2.27 1.25 4.37 2.67 6.51 4.14 3.79 2.58 7.67 4.67 11.8 6.63 3.18 1.58 6.26 3.31 9.36 5.04 15.9 8.84 32.2 16.8 48.9 23.8 3.02 1.31 5.99 2.68 8.95 4.1 7.67 3.67 15.5 6.76 23.4 9.65 3.53 1.28 7.04 2.61 10.6 3.93 1.26 0.473 2.52 0.946 3.78 1.42 1.95 0.733 3.91 1.47 5.86 2.2 2.9 1.09 5.8 2.17 8.73 3.19 2.12 1 2.12 1 4.12 4l-161-1v411c-4.95-1.49-4.95-1.49-10-3-1.21-0.343-2.42-0.686-3.66-1.04-8.64-2.49-17.2-5.26-25.3-9.07-2.09-0.92-4.17-1.64-6.34-2.33-9.55-3.08-18.7-7.38-27.7-11.6-1.44-0.674-2.87-1.35-4.31-2.02-2.55-1.19-5.1-2.39-7.65-3.59l-2.47-1.15c-3.98-1.88-7.79-3.83-11.5-6.16-1.49-0.869-2.98-1.73-4.47-2.59-1.23-0.71-1.23-0.71-2.48-1.43-0.842-0.486-1.68-0.972-2.55-1.47-1.68-0.968-3.35-1.94-5.03-2.91-0.78-0.451-1.56-0.902-2.36-1.37-1.7-0.99-3.38-2.01-5.05-3.03-2.03-1.19-3.75-1.77-6.05-2.2l0.125 2.75c-0.125 3.25-0.125 3.25-1.04 5.07-1.8 3.62-2.42 7.57-3.3 11.5-0.781 2.68-0.781 2.68-2.78 4.68-0.568 2.32-1.06 4.66-1.5 7-1.28 6.78-1.28 6.78-3.5 9-0.74 2.79-1.4 5.55-2 8.38-1.9 8.83-1.9 8.83-4 12.6-0.546 1.55-1.07 3.12-1.56 4.69-1.33 4.2-1.33 4.2-2.44 5.31-0.368 2.33-0.702 4.66-1 7h-1v-1069c4.26-1.71 7.62-2.59 12.1-3.33 0.693-0.117 1.39-0.233 2.1-0.354 2.29-0.382 4.58-0.755 6.86-1.13 1.2-0.196 1.2-0.196 2.42-0.396 99.5-16.3 201-22 474 5.21z" fill="#000002"/>
<path transform="translate(1060,293)" d="m0 0c4.75 3.93 9.14 8.03 13.3 12.6 0.843 0.915 0.843 0.915 1.7 1.85 54.2 59.6 73.9 141 70.8 220-3.19 61.5-25.8 121-64.9 168-0.532 0.649-1.06 1.3-1.61 1.97-11.8 14.3-24.8 27.7-39.4 39-1.71 1.44-3.42 2.87-5.12 4.31-23.3 19-50.1 33.8-77.5 46.1-1.31 0.6-1.31 0.6-2.64 1.21-0.813 0.35-1.63 0.701-2.46 1.06-1.06 0.467-1.06 0.467-2.14 0.943-4.33 0.831-8.21-2.09-11.9-4.13-0.9-0.494-1.8-0.988-2.73-1.5-1.42-0.786-1.42-0.786-2.88-1.59-1.99-1.09-3.97-2.18-5.96-3.27-0.969-0.532-1.94-1.06-2.94-1.61-16-8.74-32.1-16.9-48.8-24.1-6.72-2.92-13.3-5.92-19.8-9.35-5.54-2.87-11.3-4.95-17.1-7.01-4.82-1.73-9.46-3.61-14-6v-2c0.692-0.19 1.38-0.38 2.1-0.576 56.7-15.7 111-46 141-98.7 0.686-1.24 1.37-2.48 2.05-3.72 0.508-0.924 0.508-0.924 1.03-1.87 9.19-17 16-35.3 20-54.1 0.294-1.36 0.294-1.36 0.594-2.75 6.39-31 5.77-65.3-0.594-96.3-0.182-0.905-0.364-1.81-0.551-2.74-5.27-25.3-15.1-50.9-31.4-71.3-0.571-0.759-1.14-1.52-1.73-2.3-4.43-5.87-9.26-11.3-14.3-16.7-0.614-0.668-1.23-1.34-1.86-2.02-6.11-6.39-13.1-11.7-20.1-17-0.788-0.606-1.58-1.21-2.39-1.84-8.3-6.11-17.5-10.9-26.5-15.9-1.74-1.01-3.43-2.1-5.11-3.22 3.58-0.89 6.19-1.01 9.79-0.25 0.928 0.193 1.86 0.386 2.81 0.584 0.997 0.22 1.99 0.439 3.02 0.666 1.04 0.224 2.09 0.448 3.17 0.679 40.2 8.82 40.2 8.82 57.2 16.3 1.37 0.472 2.75 0.929 4.12 1.38 6.05 1.97 12 4.29 17.9 6.62 1.49 0.588 1.49 0.588 3.01 1.19 6.74 2.73 13.2 5.85 19.7 9.16 2.28 1.13 4.6 2.19 6.95 3.2 3.6 1.55 6.89 3.39 10.3 5.37 2.05 1.06 3.88 1.57 6.11 2.09 0.16-0.689 0.32-1.38 0.485-2.09 2.05-8.55 4.66-16.9 7.39-25.2 0.426-1.31 0.852-2.62 1.28-3.94 2.9-8.93 5.87-17.8 8.85-26.8 0.638-1.91 1.28-3.83 1.91-5.74 3.44-10.3 3.44-10.3 4.27-12.8 0.553-1.66 1.1-3.32 1.65-4.98 0.264-0.797 0.528-1.59 0.801-2.42 0.234-0.708 0.468-1.42 0.71-2.15 0.8-2.34 1.7-4.63 2.65-6.91z" fill="#000002"/>
<path transform="translate(835 210)" d="m0 0c1.08 0.0171 2.15 0.0341 3.26 0.0517 3.08 0.0512 6.15 0.116 9.23 0.187 0.93 0.0147 1.86 0.0295 2.82 0.0447 0.855 0.023 1.71 0.0461 2.59 0.0698 0.747 0.0163 1.49 0.0327 2.26 0.0495 1.96 0.285 1.96 0.285 4.96 2.29 2.98 0.168 2.98 0.168 6.5 0 8.01-0.161 15.9 0.345 23.9 0.938 1.22 0.087 2.43 0.174 3.68 0.264 8.75 0.671 8.75 0.671 9.88 1.8 1.77 0.24 3.55 0.421 5.34 0.578 13.3 1.26 25.8 3.12 38.6 6.85 4.52 1.23 9.13 2.01 13.7 2.89 4.04 0.819 7.98 1.87 11.9 3 2.24 0.633 4.48 1.2 6.74 1.75 2.19 0.557 4.37 1.17 6.52 1.88 3.18 1.06 6.38 1.97 9.61 2.87 10.7 3.03 21.1 6.42 31.3 10.8 2.49 1.04 4.97 2.02 7.5 2.96 11.4 4.25 23.2 8.76 32.8 16.4-0.596 2.69-1.2 5.38-1.81 8.06-0.166 0.752-0.331 1.5-0.502 2.28-1.11 4.85-2.67 9.11-4.69 13.7-0.541 1.8-1.04 3.61-1.5 5.44-0.985 3.93-2.26 7.64-3.71 11.4-1.36 3.69-2.51 7.45-3.67 11.2-1.95 6.28-3.98 12.5-6.07 18.8-2.81 8.39-5.52 16.8-8.24 25.2-0.802 2.48-1.6 4.95-2.41 7.43-0.493 1.52-0.986 3.05-1.48 4.57-1.29 3.99-2.6 7.96-3.93 11.9-4-0.592-6.88-1.86-10.4-3.88-4.13-2.32-8.23-4.32-12.6-6.12-1.73-0.787-3.46-1.58-5.19-2.38-12.2-5.56-24.7-10.7-37.4-14.8-2.47-0.826-4.91-1.73-7.35-2.64-22.6-8.24-46.3-14.3-70.1-17.7-2.56-0.397-5.08-0.884-7.61-1.44-15.9-3.22-32.1-3.54-48.2-4v-1c-22.6-0.316-44.9-0.506-67.3 2.63-2.3 0.321-4.6 0.609-6.91 0.875-21.1 2.61-44.8 9.31-63.6 19.4-1.76 0.932-3.55 1.81-5.34 2.67-6.62 3.18-12.7 6.63-18.6 11-2.58 1.75-5.11 2.73-8.13 3.45v2c-1.97 1.38-3.98 2.7-6 4-1.69 1.3-3.36 2.64-5 4-0.535 0.431-1.07 0.861-1.62 1.3-4 3.29-7.39 6.86-10.7 10.8-2.1 2.43-4.33 4.66-6.64 6.89-0.66 0.66-1.32 1.32-2 2-2.63 0.125-2.63 0.125-5 0-0.495-2.48-0.495-2.48-1-5 0.928-0.371 0.928-0.371 1.88-0.75 2.26-1.07 2.26-1.07 3.12-3.25 1.27-2.54 2.47-2.85 5-4 2.64-1.95 2.98-2.89 3.69-6.19 0.103-0.928 0.206-1.86 0.312-2.81-0.66-0.33-1.32-0.66-2-1 0.312-2.38 0.312-2.38 1-5 0.99-0.66 1.98-1.32 3-2v2h2v-2c1.32-0.33 2.64-0.66 4-1-0.33-1.98-0.66-3.96-1-6h-5v6h-1v-6c-0.619 0.33-1.24 0.66-1.88 1-2.12 1-2.12 1-4.12 1-1.32 0.33-2.64 0.66-4 1 0.66-3.96 1.32-7.92 2-12h3c0.66-2.97 1.32-5.94 2-9h5c0.33 0.66 0.66 1.32 1 2 1.65-2.64 3.3-5.28 5-8 1.65 0.33 3.3 0.66 5 1 0.33-1.32 0.66-2.64 1-4h2c0.99-1.98 0.99-1.98 2-4 0.835 0.217 0.835 0.217 1.69 0.438 1.57 0.382 3.16 0.714 4.75 1 2.68 0.587 5.05 1.48 7.56 2.56 0 3 0 3-1 6-1.79 0.217-1.79 0.217-3.62 0.438-6.16 0.247-6.16 0.247-11.4 2.56-0.0718 1.52-0.0839 3.04-0.0625 4.56 0.00902 0.826 0.018 1.65 0.0273 2.5 0.0116 0.638 0.0232 1.28 0.0352 1.93 1.85 0.692 1.85 0.692 4 1 0.99-0.66 1.98-1.32 3-2-0.33-2.64-0.66-5.28-1-8 0.66-0.33 1.32-0.66 2-1 0.66 0.33 1.32 0.66 2 1v4h5v2c0.639-0.186 1.28-0.371 1.94-0.562 1.02-0.217 1.02-0.217 2.06-0.438l1 1c0.33-0.66 0.66-1.32 1-2h2c-0.33-0.66-0.66-1.32-1-2-0.0402-2.33-0.0432-4.67 0-7 0.615 0.107 1.23 0.214 1.86 0.324 0.808 0.12 1.62 0.24 2.45 0.363 0.801 0.128 1.6 0.255 2.43 0.387 2.35 0.167 2.35 0.167 3.92-1.57 0.443-0.495 0.887-0.99 1.34-1.5 2.19 0.312 2.19 0.312 4 1-0.186-0.949-0.371-1.9-0.562-2.88-0.438-3.12-0.438-3.12 0.562-5.12 2.64 0.33 5.28 0.66 8 1v2h2c0.34-0.975 0.34-0.975 0.688-1.97 0.433-0.67 0.866-1.34 1.31-2.03 2.6-0.528 5.04-0.5 7.69-0.531 0.763-0.155 1.53-0.309 2.31-0.469 1.24-1.91 1.24-1.91 2-4 4.47-2.8 9.9-2.39 15-2 0.66 0.33 1.32 0.66 2 1-0.33-1.65-0.66-3.3-1-5h2c0.33-0.99 0.66-1.98 1-3 3.48-0.0289 6.96-0.0468 10.4-0.0625 1.49-0.0126 1.49-0.0126 3.01-0.0254 1.42-0.00483 1.42-0.00483 2.86-0.00977 0.875-0.00524 1.75-0.0105 2.65-0.0159 2.04 0.114 2.04 0.114 3.04 1.11 0.33-0.66 0.66-1.32 1-2 8.83-2.84 17.9-1.84 27-1v2c4.94 0.368 4.94 0.368 9.38-1.5 3.27-1.87 5.28-1.61 8.95-1.48 6.93-0.0608 13.9-1.63 20.7-3.02 0.33-1.32 0.66-2.64 1-4 1.65 0.33 3.3 0.66 5 1-1.49 0.495-1.49 0.495-3 1v2c6.35 1.43 12.6 2.6 19 1 0.33 0.33 0.66 0.66 1 1 1.35 0.231 2.7 0.412 4.06 0.562 1.3 0.144 2.6 0.289 3.94 0.438-1.49 0.495-1.49 0.495-3 1v2h4v2h7c0.33 0.66 0.66 1.32 1 2-0.33 0.99-0.66 1.98-1 3h-2v4h11v-2h-2v-2c-1.32-0.33-2.64-0.66-4-1 0.66-1.65 1.32-3.3 2-5 1.61-0.217 1.61-0.217 3.25-0.438 2.67-0.4 5.16-0.838 7.75-1.56v2c1.98 0.99 3.96 1.98 6 3v7c1.65-0.33 3.3-0.66 5-1-0.66-0.33-1.32-0.66-2-1v-3c0.804-0.309 1.61-0.619 2.44-0.938 2.45-0.826 2.45-0.826 3.56-2.06 1.33-0.683 2.66-1.35 4-2 0.33 1.98 0.66 3.96 1 6 7.24 1.6 14.5 2.64 21.9 3.54 3.12 0.465 3.12 0.465 5.12 1.46 0.639-0.165 1.28-0.33 1.94-0.5 2.06-0.5 2.06-0.5 5.06 0.5v5c0.976 0.133 1.95 0.266 2.96 0.402 1.27 0.177 2.54 0.353 3.86 0.535 1.9 0.261 1.9 0.261 3.83 0.527 3.36 0.535 3.36 0.535 6.36 1.54 0.33-0.33 0.66-0.66 1-1 3.41-0.087 6.68 0.202 10 1 1.38 1.63 2.71 3.3 4 5 3.9 1.53 7.58 2.33 11.7 1.38 2.31-0.375 2.31-0.375 5.62 1.56 0.887 0.681 1.77 1.36 2.69 2.06-0.33 0.99-0.66 1.98-1 3h11c0.289-0.866 0.578-1.73 0.875-2.62l3.12-9.38h3c0.144-1.03 0.289-2.06 0.438-3.12 0.317-2.18 0.661-4.37 1.09-6.53 0.598-4.26 0.576-8.42 0.531-12.7-0.00677-1.25-0.00677-1.25-0.0137-2.52-0.0117-2.04-0.0296-4.07-0.0488-6.11 0.799-0.223 1.6-0.446 2.42-0.676 2.78-1.06 2.78-1.06 3.47-3.68 0.178-1.4 0.178-1.4 0.359-2.83 0.137-0.98 0.273-1.96 0.414-2.97 0.111-0.938 0.222-1.88 0.336-2.84 0.206-1.4 0.413-2.79 0.625-4.19 0.124-0.928 0.247-1.86 0.375-2.81h-6v-4c-0.66-0.66-1.32-1.32-2-2h2v-3c1.32-0.33 2.64-0.66 4-1-0.66-1.98-1.32-3.96-2-6-3.13 0.898-3.13 0.898-6 3v2c1.32 0.33 2.64 0.66 4 1l-3 1c-1.21 2-1.21 2-2 4v-2c-0.681 0.186-1.36 0.371-2.06 0.562-3.53 0.526-6.45 0.109-9.94-0.562-0.33-0.33-0.66-0.66-1-1-3.55-0.17-7.1-0.297-10.7-0.342-5.79-0.214-5.79-0.214-8.89-2.7-0.481-0.646-0.962-1.29-1.46-1.96v6h5v2h9c0.33 0.99 0.66 1.98 1 3-3.75 1.87-8.29 1.41-12.4 1.62-3.48 0.368-6.3 1.22-9.58 2.38-2.72 0-4.97-0.281-7.62-0.812-1.19-0.226-1.19-0.226-2.41-0.457-0.647-0.241-1.29-0.482-1.96-0.73-0.33-0.99-0.66-1.98-1-3-0.99-0.33-1.98-0.66-3-1 0.66-1.32 1.32-2.64 2-4-0.66-0.33-1.32-0.66-2-1 0.268-0.495 0.536-0.99 0.812-1.5 1.63-3.42 2.88-6.94 4.19-10.5h-2v4h-7v-2c-0.99-0.33-1.98-0.66-3-1v-1h-5c1.32 0.99 2.64 1.98 4 3-0.639 0.206-1.28 0.413-1.94 0.625-2.41 1.27-2.41 1.27-2.81 4.5-0.0825 0.949-0.165 1.9-0.25 2.88-3-3.75-3-3.75-3-6h-2v6c-3-3.75-3-3.75-3-6h-2c-0.33 1.98-0.66 3.96-1 6-2-3.75-2-3.75-2-6h-2c-0.33 1.98-0.66 3.96-1 6-2-3.75-2-3.75-2-6h-6c1.32-1.65 2.64-3.3 4-5h-2c-0.33 0.66-0.66 1.32-1 2-0.33-0.99-0.66-1.98-1-3 0.99-0.66 1.98-1.32 3-2 0.33-0.99 0.66-1.98 1-3h-2c-0.33 0.99-0.66 1.98-1 3-0.33-4.62-0.66-9.24-1-14-9.2-4.6-18.5-4.15-28.6-3.56-1.51 0.0783-1.51 0.0783-3.04 0.158-2.44 0.128-4.89 0.263-7.33 0.404 0.33-1.32 0.66-2.64 1-4 0.888 0.0174 0.888 0.0174 1.79 0.0352 0.79 0.00902 1.58 0.018 2.39 0.0273 1.17 0.0174 1.17 0.0174 2.36 0.0352 2.9-0.051 2.9-0.051 7.46-1.1h-20c-0.33 1.32-0.66 2.64-1 4-4.26 1.04-8.37 1.14-12.7 1.11-1.14 2.19e-4 -1.14 2.19e-4 -2.31 4.43e-4 -2.51-6.94e-4 -5.01-0.00846-7.52-0.0163-1.74-0.00187-3.48-0.00329-5.22-0.00429-4.58-0.00381-9.15-0.0136-13.7-0.0247-4.67-0.0102-9.34-0.0148-14-0.0198-9.16-0.0107-18.3-0.0278-27.5-0.0488v-5h-17v3c0.536-0.186 1.07-0.371 1.62-0.562 2.99-0.552 5.41-0.0435 8.38 0.562v2c-6.43 0.495-6.43 0.495-13 1 0.33-1.65 0.66-3.3 1-5l-2 1v3h-3c-0.33-0.99-0.66-1.98-1-3-2.52-0.0545-5.04-0.0939-7.56-0.125-1.06-0.0251-1.06-0.0251-2.13-0.0508-4.82-0.0444-8.73 0.648-13.3 2.18 0.33 0.99 0.66 1.98 1 3-0.33 0.66-0.66 1.32-1 2-2.5 0.633-2.5 0.633-5.56 1.12-1.01 0.168-2.02 0.335-3.07 0.508-0.782 0.121-1.56 0.242-2.37 0.367-0.33 0.99-0.66 1.98-1 3h-11v-2h-3c-0.33 0.99-0.66 1.98-1 3v-4c-2.31-0.33-4.62-0.66-7-1v-2c-3.47 0.495-3.47 0.495-7 1 0.99 1.98 0.99 1.98 2 4-1.31 1.5-1.31 1.5-3 3h-3v4h-4c-0.33-0.66-0.66-1.32-1-2h-9v-2h3v-3c-0.66-0.66-1.32-1.32-2-2 0.66-0.99 1.32-1.98 2-3-0.66-0.66-1.32-1.32-2-2 0.33-0.66 0.66-1.32 1-2 2.62-0.816 2.62-0.816 5.88-1.56 3.1-0.721 6.1-1.43 9.12-2.44 1.67-0.0387 3.33-0.045 5 0-0.66-0.66-1.32-1.32-2-2 1.07-0.144 2.14-0.289 3.25-0.438 3.48-0.443 3.48-0.443 5.75-1.12 3-0.656 5.94-0.496 9-0.438 0.33-0.99 0.66-1.98 1-3h4v-3c-1.98-0.33-3.96-0.66-6-1v-5c-3.35 0.949-6.69 1.9-10 3l4 2v3c-6.36 2.76-12.1 3.63-19 4 0.66-1.98 1.32-3.96 2-6-2.58 0.619-5.17 1.25-7.75 1.88-0.73 0.174-1.46 0.348-2.21 0.527-3.61 0.886-6.74 1.85-10 3.6-1.37 0.335-2.74 0.625-4.12 0.875-7.54 1.58-14.4 4.9-21.4 8.06-2.98 1.28-6.01 2.42-9.05 3.57-3.81 1.44-7.5 2.95-11.1 4.81-3.31 1.69-3.31 1.69-5.31 1.69v4c-1.11 0.0412-2.23 0.0825-3.38 0.125-7.2 0.884-14 5.43-18.6 10.9 0.239 2.61 0.239 2.61 1 5-0.33 0.66-0.66 1.32-1 2h2v-4l3 1h-2v2c0.681-0.33 1.36-0.66 2.06-1 3.45-1.17 6.32-1.14 9.94-1v-2c-0.722 0.186-1.44 0.371-2.19 0.562-2.94 0.457-4.95 0.173-7.81-0.562v-1c0.566-0.11 1.13-0.219 1.71-0.332 0.733-0.159 1.47-0.317 2.22-0.48 0.731-0.151 1.46-0.302 2.21-0.457 0.61-0.241 1.22-0.482 1.85-0.73 0.33-0.99 0.66-1.98 1-3h4c0.33-1.32 0.66-2.64 1-4 0.66 0.66 1.32 1.32 2 2 0.33-1.32 0.66-2.64 1-4 1.65 0.33 3.3 0.66 5 1 0.33-1.32 0.66-2.64 1-4h2c0.495-0.99 0.495-0.99 1-2 4.37-1.67 7.35-2 12-2 0.495-0.99 0.495-0.99 1-2h2v-2c7.52-3.93 13.4-6.3 22-6v6h5c1 2 1 2 0.441 3.8-0.435 1.02-0.435 1.02-0.879 2.07-1.33 3.14-1.56 4.53-1.56 8.12h-4v2h-9c-0.309 1.42-0.309 1.42-0.625 2.88-1.38 3.12-1.38 3.12-4.38 4.44-0.99 0.227-1.98 0.454-3 0.688l-2 1v-3c-1.65 0.99-3.3 1.98-5 3 0.33-1.65 0.66-3.3 1-5h-5v2h-3v7c-1.32 0.33-2.64 0.66-4 1-0.054-1.46-0.0928-2.92-0.125-4.38-0.0232-0.812-0.0464-1.62-0.0703-2.46 0.195-2.16 0.195-2.16 2.2-4.16-0.66-0.33-1.32-0.66-2-1-0.0374 0.771-0.0748 1.54-0.113 2.34-0.0657 1-0.131 2.01-0.199 3.04-0.058 0.998-0.116 2-0.176 3.02l-0.512 2.6c-3 2-3 2-6 2-0.66-0.99-1.32-1.98-2-3-3.01 1.51-3.61 4.03-5 7 0.66-0.33 1.32-0.66 2-1-0.495 1.98-0.495 1.98-1 4h-2c-0.0619 0.619-0.124 1.24-0.188 1.88-0.812 2.12-0.812 2.12-3.19 3.44-2.62 0.688-2.62 0.688-5.62-0.312v7c-2-2-2-2-2.12-5.12 0.0412-0.949 0.0825-1.9 0.125-2.88-0.754 4.98-0.754 4.98-1 10 0.722-0.186 1.44-0.371 2.19-0.562 2.94-0.457 4.95-0.173 7.81 0.562v2h-12v-3l-3-1v2h-4v4l3 1c-0.495 1.98-0.495 1.98-1 4h6v1c-3.47 0.495-3.47 0.495-7 1v-2h-7c-0.495 1.49-0.495 1.49-1 3-1.32-0.33-2.64-0.66-4-1-0.495 1.49-0.495 1.49-1 3-0.33-0.99-0.66-1.98-1-3h-3c-0.66 1.32-1.32 2.64-2 4v-9h-2v3c-0.949 0.0825-1.9 0.165-2.88 0.25-3.22 0.395-3.22 0.395-4.44 2.75-0.34 0.99-0.34 0.99-0.688 2-1.97 1.97-5.35 1.66-8 2-0.33 2.31-0.66 4.62-1 7-4.75 1-4.75 1-7 1 0.33 0.99 0.66 1.98 1 3l-2 1c-0.652 2.02-0.652 2.02-1 4h-6c-0.495 1.98-0.495 1.98-1 4h-2v-2h-3c0.99 2.48 0.99 2.48 2 5-1.32 0.33-2.64 0.66-4 1-0.33-0.66-0.66-1.32-1-2 0.33-0.99 0.66-1.98 1-3h-5v-7l2-1c-0.33-0.99-0.66-1.98-1-3 0.312-2.12 0.312-2.12 1-4l2-1v2l3-1v-3c2.97-0.99 2.97-0.99 6-2-0.66-0.99-1.32-1.98-2-3 7.29-3.43 7.29-3.43 12-3 0.495-1.49 0.495-1.49 1-3-0.66-0.33-1.32-0.66-2-1 0.495-1.49 0.495-1.49 1-3 2.06-0.688 2.06-0.688 4-1-0.66-0.33-1.32-0.66-2-1v-3c-0.763 0.825-1.53 1.65-2.31 2.5-2.69 2.5-2.69 2.5-5.69 2.5-0.66 0.99-1.32 1.98-2 3h-3c0.472-4.28 2.87-6.05 6-8.81 0.498-0.439 0.995-0.879 1.51-1.33 7.17-6.28 14.7-11.7 22.6-16.9 2.46-1.65 4.82-3.36 7.17-5.17 3.41-2.61 6.93-4.66 10.7-6.75 0.887-0.619 1.77-1.24 2.69-1.88 3.99-2.56 8.15-4.59 12.4-6.66 2.86-1.4 2.86-1.4 5.31-2.91 3.26-1.96 6.63-3.67 10-5.37 0.702-0.35 1.4-0.701 2.13-1.06 6.7-3.31 13.5-6.26 20.4-9.13 0.994-0.431 1.99-0.861 3.01-1.3 10.2-4.37 20.7-7.81 31.3-10.9 2-0.589 3.99-1.21 5.97-1.84 28.9-9.12 59.5-14.4 89.7-16.4 1.04-0.066 2.07-0.132 3.14-0.2 0.919-0.0531 1.84-0.106 2.78-0.161 2.07-0.0123 2.07-0.0123 3.09-1.23 4.51-0.419 9.04-0.488 13.6-0.625 0.702-0.0221 1.4-0.0443 2.13-0.067 14.4-0.428 28.8-0.263 43.2 0.00455z" fill="#5A6DA1"/>
<path transform="translate(1114,1111)" d="m0 0c2.39 3.59 3.09 7.07 4 11.2 0.406 1.78 0.812 3.57 1.22 5.35 0.217 0.961 0.433 1.92 0.657 2.91 7.39 32.7 15.7 65.1 24.1 97.5 0.4 1.55 0.4 1.55 0.808 3.12 11.3 43.4 23.9 86.8 42.2 128h-156c-9.32-21-9.32-21-12.4-29.7-0.337-0.909-0.674-1.82-1.02-2.76-1.4-3.88-2.65-7.53-3.14-11.6-0.133-0.963-0.266-1.93-0.402-2.92-0.66-0.33-1.32-0.66-2-1 1.97-1.97 3.94-3.94 5.91-5.9 1.6-1.61 3.19-3.22 4.78-4.85 2.31-2.25 2.31-2.25 4.69-4.06 3.64-3.04 6.56-6.58 9.62-10.2 1.16-1.34 2.33-2.67 3.5-4 0.57-0.654 1.14-1.31 1.73-1.98 1.24-1.41 2.48-2.8 3.73-4.2 0.632-0.705 1.26-1.41 1.91-2.14 0.575-0.636 1.15-1.27 1.74-1.93 1.59-1.82 1.59-1.82 2.38-4.76 0.98-1.02 1.98-2.02 3-3 18.8-24.5 32.5-52.7 42-82 0.5-1.46 1-2.92 1.5-4.38 3.93-11.9 6.69-23.9 9.03-36.2 0.499-2.59 1.03-5.16 1.56-7.74 0.661-3.29 1.15-6.48 1.35-9.84 0.404-4.73 1.71-8.52 3.56-12.9z" fill="#000002"/>
<path transform="translate(1084,1204)" d="m0 0c2.33 3.29 2.03 5.98 1.47 9.86-0.754 3.39-2.32 6.28-4.04 9.26-0.358 0.643-0.716 1.29-1.08 1.95-0.744 1.33-1.49 2.66-2.25 3.99-1.04 1.82-2.05 3.66-3.06 5.5-4.9 8.8-10.3 17.2-16 25.4-0.443 0.659-0.886 1.32-1.34 2-1.17 1.7-2.41 3.36-3.66 5h-2c-0.112 0.598-0.225 1.2-0.341 1.81-1.08 3.57-3.86 5.88-6.41 8.5-3.74 3.86-7.04 7.72-10.1 12.1-1.51 2.04-3.24 3.59-5.21 5.18-2.27 1.9-4.08 3.56-5.94 5.88-2.92 3.65-6.43 6.51-10 9.5-0.949 0.804-1.9 1.61-2.88 2.44-2.12 1.56-2.12 1.56-4.12 1.56-0.247 0.639-0.495 1.28-0.75 1.94-1.58 2.61-2.42 2.35-5.25 3.06-0.287 0.612-0.575 1.22-0.871 1.86-1.37 2.61-2.69 3.43-5.19 4.96-3.22 2.04-6.23 4.16-9.19 6.56-4.57 3.61-9.41 6.61-14.4 9.6-2.13 1.28-4.25 2.59-6.34 3.92-24.1 15.3-50.3 26.8-77.5 35.3-2.36 0.749-4.71 1.53-7.06 2.32-52.9 17.7-109 23.1-165 22.7-3.44-0.0192-6.87-0.0232-10.3-0.0267-4.2-0.00521-8.39-0.0196-12.6-0.0344-0.762-0.00188-1.52-0.00376-2.31-0.0057-14.9-0.0477-29.9-0.166-44.7-2.57-1.79-0.276-3.59-0.551-5.38-0.824-0.895-0.137-1.79-0.274-2.71-0.416-2.53-0.366-5.05-0.679-7.58-0.967-13.4-1.55-26.7-3.89-40-6.36-0.921-0.169-1.84-0.338-2.79-0.513-10.4-1.92-20.7-4.03-31-6.71-2.9-0.737-5.79-1.35-8.73-1.9-2.98-0.567-5.76-1.28-8.62-2.29-5.47-1.86-11-3.44-16.6-5.03-9.21-2.66-18.3-5.51-27.4-8.62-0.697-0.218-1.39-0.435-2.11-0.659-3.82-1.21-7.37-2.51-10.9-4.38-14.9-7.54-29.8-6.76-46-6.05-1.65 0.066-3.29 0.0835-4.94 0.0909-2.03-2.03-1.37-6.08-1.5-8.88-0.225-5.64-0.225-5.64-1.5-11.1-1.99-0.704-3.99-1.37-6-2-0.33-0.66-0.66-1.32-1-2 3.01-0.934 3.87-1.04 7 0 0.33 0.66 0.66 1.32 1 2 1.98 0.727 3.98 1.4 6 2-0.33-1.65-0.66-3.3-1-5h-4c-0.125-2.38-0.125-2.38 0-5 0.99-0.99 0.99-0.99 2-2 3 1 3 1 4 3 1.52 0.186 1.52 0.186 3.06 0.375 4 0.634 6.52 1.78 10 3.64 4.79 2.48 9.59 3.35 14.9 3.98 0.309 0.784 0.619 1.57 0.938 2.38 0.991 2.55 0.991 2.55 2.06 4.62h2v2c1.32 0.33 2.64 0.66 4 1v2c1.32 0.33 2.64 0.66 4 1v3h-4v4c0.928 0.144 1.86 0.289 2.81 0.438 3.19 0.562 3.19 0.562 6.19 1.56v2c3.12-0.486 6-0.999 9-2v-2h3c0.66-1.32 1.32-2.64 2-4 1.65 0.66 3.3 1.32 5 2v4c4.62 0.66 9.24 1.32 14 2v2h3c0.33-0.66 0.66-1.32 1-2 1.98 0.66 3.96 1.32 6 2v3c0.959 0.186 0.959 0.186 1.94 0.375 4.03 0.823 8.05 1.72 12.1 2.62-0.495 3.96-0.495 3.96-1 8 0.371-0.959 0.371-0.959 0.75-1.94 1.25-2.06 1.25-2.06 3.31-2.69 0.639-0.124 1.28-0.247 1.94-0.375 0.33-0.66 0.66-1.32 1-2 0.99-0.33 1.98-0.66 3-1 0.309-0.825 0.619-1.65 0.938-2.5 1.06-2.5 1.06-2.5 2.88-3.38 2.56-0.146 4.71 0.256 7.19 0.875v3c0.66 0.33 1.32 0.66 2 1h-6c0.949 0.103 1.9 0.206 2.88 0.312 3.12 0.688 3.12 0.688 5.12 3.69 0.33-0.66 0.66-1.32 1-2 2.56-0.625 2.56-0.625 5-1-1.65-0.33-3.3-0.66-5-1v-2c-0.99-0.33-1.98-0.66-3-1 3.77-1.75 6.67-2.22 10.8-2.12 0.976 0.018 1.95 0.0361 2.96 0.0547 0.736 0.0232 1.47 0.0464 2.23 0.0703v3c0.635 2.34 1.3 4.68 2 7-0.33 0.33-0.66 0.66-1 1 1.62 0.389 3.25 0.761 4.88 1.12 0.905 0.209 1.81 0.418 2.74 0.633 0.786 0.0799 1.57 0.16 2.38 0.242 2.05-1.84 2.05-1.84 3-4 0.66 0.33 1.32 0.66 2 1 1.37 0.0527 1.37 0.0527 4-1 0.33 0.99 0.66 1.98 1 3 1.69 1.85 1.69 1.85 4 3 2.61-0.239 2.61-0.239 5-1h2v-1h5l1-2c0.99 0.33 1.98 0.66 3 1-0.66 1.32-1.32 2.64-2 4 2.33 1.21 4.5 2.17 7 3 0.66 0.33 1.32 0.66 2 1 2.04 0.0707 4.08 0.0842 6.12 0.0625 1.64-0.0135 1.64-0.0135 3.32-0.0273 0.843-0.0116 1.69-0.0232 2.55-0.0352v-1h5c1.09 4.34 0.997 7.01-1 11-2.06 1.12-2.06 1.12-4 2v1c1.28 0.206 2.56 0.412 3.88 0.625 0.719 0.116 1.44 0.232 2.18 0.352 0.642 0.00773 1.28 0.0155 1.95 0.0234 0.66-0.66 1.32-1.32 2-2 0-1.96-0.00519-3.93-0.0625-5.89 0.087-2.93 0.98-5.4 2.06-8.11 0.928 0.186 1.86 0.371 2.81 0.562 3.2 0.679 3.2 0.679 6.19-0.562v-3c-1.98-0.33-3.96-0.66-6-1l1-2h3v-2c2.31-0.33 4.62-0.66 7-1v2c-1.65 0.33-3.3 0.66-5 1 2.37 0.251 2.37 0.251 5 0 0.495-0.495 0.99-0.99 1.5-1.5 1.5-1.5 1.5-1.5 4-1.88 2.5 0.375 2.5 0.375 3.77 1.89 2.56 2.2 4.61 1.78 7.92 1.68 1.63-0.0406 1.63-0.0406 3.29-0.082 0.831-0.0348 1.66-0.0696 2.52-0.105 0.33 2.64 0.66 5.28 1 8 0.33-0.66 0.66-1.32 1-2h2c0.33-0.99 0.66-1.98 1-3 0.66 0.33 1.32 0.66 2 1v-2h-2c-0.124-0.619-0.247-1.24-0.375-1.88-0.497-2.32-0.497-2.32-2.62-4.12h2v-3h2c0.33-0.66 0.66-1.32 1-2v10c0.66-0.33 1.32-0.66 2-1-0.186-0.598-0.371-1.2-0.562-1.81-0.438-2.19-0.438-2.19 0.562-5.19h2c0.33-0.66 0.66-1.32 1-2v5c1.65 0.33 3.3 0.66 5 1v3c-1.65-0.33-3.3-0.66-5-1v2c0.908-0.0619 1.82-0.124 2.75-0.188 3.54 0.204 4.7 0.833 7.25 3.19-0.188 1.81-0.188 1.81-1 4-2.27 1.57-4.54 2.77-7 4 1.35-0.144 2.71-0.291 4.06-0.438 0.824-0.0877 1.65-0.175 2.5-0.266 2.03-0.247 4.05-0.603 6.07-0.984 3.91-0.362 6.65 0.541 10.4 1.69 0.99-0.33 1.98-0.66 3-1 8.97-0.557 18.1 0.371 27 1-0.33-0.66-0.66-1.32-1-2 3.3-0.33 6.6-0.66 10-1v-2c-0.66 0.33-1.32 0.66-2 1-2.67 0.134-5.32 0.0432-8 0 0.33-1.65 0.66-3.3 1-5-1.32-0.33-2.64-0.66-4-1 0.33-0.66 0.66-1.32 1-2 3.63 0.33 7.26 0.66 11 1 0.33 0.99 0.66 1.98 1 3h2v-3c-0.66-0.33-1.32-0.66-2-1h2c0.33-0.99 0.66-1.98 1-3 0.412 0.474 0.825 0.949 1.25 1.44 1.93 1.73 3.23 2.13 5.75 2.56v-3h2v3h3v-3c-1.65-0.66-3.3-1.32-5-2v-3h2v3h3v-3h2v3c0.759-0.0232 1.52-0.0464 2.3-0.0703 0.994-0.018 1.99-0.0361 3.01-0.0547 0.986-0.0232 1.97-0.0464 2.99-0.0703 2.7 0.195 2.7 0.195 5.7 2.2v3c1.32-0.66 2.64-1.32 4-2v2c1.98 0.66 3.96 1.32 6 2v-2c-1.32-0.33-2.64-0.66-4-1 0.619-0.289 1.24-0.577 1.88-0.875 2.26-1.06 2.26-1.06 4.12-3.12h4c0.33-0.99 0.66-1.98 1-3h2v2h3v-2h2v2h4v2h4v2c0.66 0.33 1.32 0.66 2 1-0.99 0.99-1.98 1.98-3 3-1.65-0.66-3.3-1.32-5-2-0.99 0.99-1.98 1.98-3 3 0.99 0.66 1.98 1.32 3 2 3.25-1.18 6.23-2.57 9.25-4.25 1.75-0.75 1.75-0.75 4.75 0.25 0.33 0.66 0.66 1.32 1 2h4c0.33-0.99 0.66-1.98 1-3 3.56-1.19 3.56-1.19 7-2v2c1.21 0.186 1.21 0.186 2.44 0.375 0.846 0.206 1.69 0.412 2.56 0.625 0.33 0.66 0.66 1.32 1 2v-3h2v-2c1.16-0.0387 1.16-0.0387 2.34-0.0781 1-0.0567 2.01-0.113 3.04-0.172 0.998-0.0464 2-0.0928 3.02-0.141 0.859-0.201 1.72-0.402 2.6-0.609 1.22-1.89 1.22-1.89 2-4 3-2 3-2 6-2 0.639-0.66 1.28-1.32 1.94-2 2.06-2 2.06-2 6.06-2v3h2c-0.33 1.98-0.66 3.96-1 6h-3v2h-2v3c1.46-0.229 2.92-0.484 4.38-0.75 0.812-0.139 1.62-0.278 2.46-0.422 2.34-0.646 2.34-0.646 3.45-2.91 0.235-0.634 0.469-1.27 0.711-1.92-0.66-0.33-1.32-0.66-2-1 0.33-1.65 0.66-3.3 1-5 9-3 9-3 12-3 0.124-0.639 0.247-1.28 0.375-1.94 0.206-0.681 0.413-1.36 0.625-2.06 3.04-1.52 6.28-1.37 9.62-1.56 0.706-0.0432 1.41-0.0864 2.14-0.131 1.74-0.106 3.49-0.207 5.23-0.307 0.298-0.788 0.596-1.58 0.902-2.39 1.32-3.15 2.02-4.11 5.1-5.61 3.02-0.24 5.98-0.174 9 0v-6c8.05-1.46 8.05-1.46 12 0.438 0.66 0.516 1.32 1.03 2 1.56h1c0.33-3.3 0.66-6.6 1-10 0.66 0.33 1.32 0.66 2 1v2h2v-4h-2c0.33-0.99 0.66-1.98 1-3 0.66 0.33 1.32 0.66 2 1 0.33 0.99 0.66 1.98 1 3 1.32-1.65 2.64-3.3 4-5h-3c-1.9-0.154-3.79-0.322-5.69-0.5-0.994-0.0928-1.99-0.186-3.01-0.281-1.14-0.108-1.14-0.108-2.3-0.219v6c-0.99 0.33-1.98 0.66-3 1-0.66-0.33-1.32-0.66-2-1v2c-2.31 0.33-4.62 0.66-7 1v-3h2v-2c0.33-0.33 0.66-0.66 1-1v-3c2.31 0.66 4.62 1.32 7 2 0.268-0.639 0.536-1.28 0.812-1.94 1.19-2.06 1.19-2.06 4.19-3.06 0.33-2.64 0.66-5.28 1-8h6l1 2c0.227-0.639 0.454-1.28 0.688-1.94 1.31-2.06 1.31-2.06 3.69-2.88 2.52-0.18 4.25 0.0193 6.62 0.812-0.66 0.454-1.32 0.908-2 1.38-0.66 0.536-1.32 1.07-2 1.62v2l-3 3h9c0.66-2.31 1.32-4.62 2-7 0.557 0.351 1.11 0.701 1.69 1.06 2.85 1.16 4.4 0.747 7.31-0.0625 0.33 0.99 0.66 1.98 1 3-0.33-1.32-0.66-2.64-1-4h-3v-3c-0.577 0.206-1.15 0.412-1.75 0.625-2.77 0.462-3.9-0.196-6.25-1.62 0.289-0.969 0.577-1.94 0.875-2.94 1.07-3.68 1.84-7.39 2.56-11.1 0.562-1.92 0.562-1.92 2.56-3.92h4l-1-2h5v-4h2v-2c0.33-0.33 0.66-0.66 1-1-0.409-2.05-0.409-2.05-1-4 1.32-0.33 2.64-0.66 4-1v-2c-0.66-0.33-1.32-0.66-2-1l2-4c-0.66-0.33-1.32-0.66-2-1 1.29-1.38 2.63-2.71 4-4h2v2c1.65-0.66 3.3-1.32 5-2v9h2v2c2.31 0.33 4.62 0.66 7 1v-6h3c2.19-1.94 2.19-1.94 4-4-0.66-0.33-1.32-0.66-2-1 1.42-0.464 1.42-0.464 2.88-0.938 2.99-0.936 2.99-0.936 5.12-2.06v2c0.99 0.33 1.98 0.66 3 1-0.66 0.99-1.32 1.98-2 3h-2c-0.268 0.598-0.536 1.2-0.812 1.81-1.18 2.17-2.46 3.46-4.19 5.19-0.33 0.99-0.66 1.98-1 3-2.29 1.17-2.29 1.17-5.06 2.19-0.919 0.344-1.84 0.688-2.79 1.04-0.71 0.254-1.42 0.508-2.15 0.77 0.0619 1.39 0.0619 1.39 0.125 2.81-0.125 3.19-0.125 3.19-2.12 6.19-0.66 0.33-1.32 0.66-2 1-0.33 0.99-0.66 1.98-1 3 2.97-0.495 2.97-0.495 6-1-0.66 0.33-1.32 0.66-2 1v7h3c0.66-2.97 1.32-5.94 2-9h-2c-0.625-2.87-0.625-2.87-1-6 0.66-0.66 1.32-1.32 2-2 2.13 0.375 2.13 0.375 4 1-0.0838 0.626-0.168 1.25-0.254 1.9-0.153 1.23-0.153 1.23-0.309 2.48-0.104 0.812-0.209 1.62-0.316 2.46-0.303 2.21-0.303 2.21 0.879 4.16 4.09-0.542 6.42-1.74 9.62-4.31 1.13-0.891 1.13-0.891 2.29-1.8 2.02-1.83 3.48-3.71 5.09-5.89 4.39-3 4.39-3 7-3v-2c1.68-1.57 3.47-2.95 5.27-4.37 1.86-1.76 2.66-3.32 3.73-5.63 2-2.25 2-2.25 4-4h2c0.113-0.584 0.227-1.17 0.344-1.77 0.709-2.41 1.69-3.89 3.16-5.92 2.5-3.81 3.08-6.82 3.16-11.3 0.431-2.54 1.32-3.42 3.34-4.98h2c0.155-0.835 0.155-0.835 0.312-1.69 0.688-2.31 0.688-2.31 2.19-4.75 1.52-2.59 2.08-4.61 2.5-7.56 1.32 0.33 2.64 0.66 4 1-1.32-0.99-2.64-1.98-4-3 0.33-0.33 0.66-0.66 1-1 0.33-0.99 0.66-1.98 1-3h2c0.33-1.32 0.66-2.64 1-4h4c0.289-0.639 0.577-1.28 0.875-1.94 1.12-2.06 1.12-2.06 3.12-3.06v-5h3c-0.33-0.33-0.66-0.66-1-1-0.0408-2-0.0425-4 0-6 0.66 0.33 1.32 0.66 2 1 0.66-0.99 1.32-1.98 2-3z" fill="#5A6DA1"/>
<path transform="translate(1049,293)" d="m0 0c0.99 0.33 1.98 0.66 3 1-0.141 1.46-0.288 2.92-0.438 4.38-0.0812 0.812-0.162 1.62-0.246 2.46-0.316 2.16-0.316 2.16-1.32 4.16l3 3c0.66-2.97 1.32-5.94 2-9h2c0.33-1.32 0.66-2.64 1-4 1.18 3.55 0.795 4.14-0.562 7.5-2.27 5.93-4.19 11.9-6.07 18-1.7 5.47-3.49 10.9-5.32 16.3-2.81 8.39-5.52 16.8-8.24 25.2-0.802 2.48-1.6 4.95-2.41 7.43-0.493 1.52-0.986 3.05-1.48 4.57-1.29 3.99-2.6 7.96-3.93 11.9-5.34-0.869-9.57-2.92-14-6-1.81-2.62-1.81-2.62-3-5-2.07-1.78-2.07-1.78-4-3l2-2c0.33 0.33 0.66 0.66 1 1 1.91-0.102 1.91-0.102 4.06-0.438 1.3-0.186 2.6-0.371 3.94-0.562v-8c-1.67 0.0309-1.67 0.0309-3.38 0.0625-3.62-0.0625-3.62-0.0625-5.62-1.06-0.125-7.62-0.125-7.62 1-11h-3c-0.0271-1.44-0.0465-2.87-0.0625-4.31-0.0116-0.801-0.0232-1.6-0.0352-2.43 0.0977-2.26 0.0977-2.26 1.1-5.26h2c0.33-0.66 0.66-1.32 1-2h2c0.934 3.01 1.04 3.87 0 7 3.27-3.13 4.11-5.13 4.56-9.62 0.0838-0.817 0.168-1.63 0.254-2.48 0.0606-0.626 0.121-1.25 0.184-1.9h2c-0.0825 0.743-0.165 1.49-0.25 2.25 0.321 3.53 1.6 4.52 4.25 6.75l2-1v2c1.48-0.495 1.48-0.495 3-1 0.33-2.31 0.66-4.62 1-7-2.47 0.495-2.47 0.495-5 1-0.309-0.784-0.619-1.57-0.938-2.38-0.991-2.55-0.991-2.55-2.06-4.62 0.559-2.16 0.559-2.16 1.44-4.62 0.431-1.23 0.431-1.23 0.871-2.48 0.228-0.626 0.456-1.25 0.691-1.9h3c0.66-0.66 1.32-1.32 2-2h4v-3h-2v-2h3c0.33 0.66 0.66 1.32 1 2 0.99 0.33 1.98 0.66 3 1v-12c0.99-0.33 1.98-0.66 3-1-0.33 1.65-0.66 3.3-1 5 2.83-1.42 3.02-3.14 4.12-6.06 0.53-1.38 0.53-1.38 1.07-2.79 0.266-0.71 0.531-1.42 0.805-2.15z" fill="#5B6DA1"/>
<path transform="translate(908,947)" d="m0 0c13.6 11 23.2 25.1 32 40 0.451 0.758 0.902 1.52 1.37 2.3 5.35 9.3 10.3 19.2 13 29.7 0.536 2.07 0.536 2.07 1.59 3.9 1.07 2.28 1.46 4.14 1.79 6.64 0.12 0.853 0.24 1.71 0.363 2.59 0.117 0.884 0.235 1.77 0.355 2.68 0.968 7.25 0.968 7.25 2.53 14.4 2.13 8.47 2.26 17 2.53 25.7 0.0664 2.14 0.145 4.29 0.224 6.43 0.32 9.64-0.0128 19.1-0.781 28.7-1.92-2.88-2.48-4.45-3.2-7.75-0.215-0.968-0.429-1.94-0.65-2.93-0.34-1.58-0.34-1.58-0.687-3.19-0.499-2.26-0.998-4.51-1.5-6.77-0.259-1.18-0.519-2.37-0.786-3.58-10.3-46.7-23.1-91.5-46.1-134-1.04-2.04-1.04-2.04-2.04-5.04z" fill="#000002"/>
<path transform="translate(832,890)" d="m0 0c5.94 0.99 5.94 0.99 12 2-0.33 0.99-0.66 1.98-1 3 0.866 0.0825 1.73 0.165 2.62 0.25 3.87 0.86 6.17 2.47 9.38 4.75 0.99 0.33 1.98 0.66 3 1 0.433 0.619 0.866 1.24 1.31 1.88 2.79 3.51 6.78 4.73 10.8 6.5 3.22 1.82 4.62 3.74 6.88 6.62 3.72 2.86 3.72 2.86 8.06 4.44 3.71 1.08 6.19 4.75 8.75 7.53 4.42 4.63 8.29 7.51 14.2 10-1.45-3.19-2.65-5.66-5.19-8.12-1.81-1.88-1.81-1.88-1.81-5.88 3.85-0.367 5.82-0.0922 9.31 1.69 2.69 2.31 2.69 2.31 3.56 5.06 0.0412 0.742 0.0825 1.49 0.125 2.25h3v2c0.577 0.0206 1.15 0.0412 1.75 0.0625 3.54 1.48 4.68 4.56 6.25 7.94 0.33 0.99 0.66 1.98 1 3h3c0.495 3.96 0.495 3.96 1 8 2.31 0.66 4.62 1.32 7 2v3h-2v2c-1.49 0.495-1.49 0.495-3 1l-3-3c0.522 3.76 1.22 6.32 4 9 2.63 0.334 2.63 0.334 5 0v-2h8c0.13 0.94 0.13 0.94 0.262 1.9 0.424 2.47 0.887 4.75 1.74 7.1 2.4 1.54 2.4 1.54 5 2l2 2c-0.303 2.34-0.639 4.67-1 7 0.347 2.32 0.347 2.32 1 4h-4c-0.33-1.65-0.66-3.3-1-5v2c-0.315 1.34-0.646 2.67-1 4 3.14 1.09 3.14 1.09 7 2v14c-3.35 0-5.06-0.398-8-2-1.48-2.51-1.48-2.51-2.75-5.69-8.01-18.6-20.8-38.3-36.7-50.9-1.76-1.58-2.99-3.26-4.34-5.19-5.42-7.53-12.7-13.2-20.6-18-0.534-0.393-1.07-0.786-1.62-1.19v-2c-0.713-0.25-1.43-0.5-2.16-0.758-3.13-1.37-5.55-3.07-8.28-5.12-5.88-4.4-11.9-8.37-18.2-12-0.604-0.345-1.21-0.69-1.83-1.05-4.7-2.67-9.46-5.2-14.3-7.66-2.21-1.42-2.21-1.42-5.21-5.42z" fill="#596CA0"/>
<path transform="translate(432,1327)" d="m0 0c3 1 3 1 4 3 1.01 0.124 2.02 0.247 3.06 0.375 4 0.634 6.52 1.78 10 3.64 4.79 2.48 9.59 3.35 14.9 3.98 0.309 0.784 0.619 1.57 0.938 2.38 0.991 2.55 0.991 2.55 2.06 4.62h2v2c1.32 0.33 2.64 0.66 4 1v2c1.32 0.33 2.64 0.66 4 1v3h-4c0.495 3.46 0.495 3.46 1 7-0.701-0.144-1.4-0.289-2.12-0.438-0.949-0.186-1.9-0.371-2.88-0.562-0.894-0.175-1.79-0.351-2.71-0.531-3.66-0.521-7.14-0.564-10.8-0.531-0.699 0.00379-1.4 0.00757-2.12 0.0115-2.21 0.0121-4.43 0.0308-6.64 0.051-2.93 0.0265-5.87 0.0465-8.8 0.0625-1.3 0.0116-2.59 0.0232-3.93 0.0352-2.96-0.0977-2.96-0.0977-3.96-1.1-0.212-2.63-0.376-5.24-0.5-7.88-0.225-5.64-0.225-5.64-1.5-11.1-1.99-0.704-3.99-1.37-6-2-0.33-0.66-0.66-1.32-1-2 3.01-0.934 3.87-1.04 7 0 0.33 0.66 0.66 1.32 1 2 1.98 0.727 3.98 1.4 6 2-0.33-1.65-0.66-3.3-1-5h-4c-0.125-2.38-0.125-2.38 0-5 0.66-0.66 1.32-1.32 2-2z" fill="#5A6DA1"/>
<path transform="translate(995 235)" d="m0 0c0.759 0.23 1.52 0.46 2.3 0.697 2.34 0.715 4.68 1.44 7.01 2.18 0.685 0.215 1.37 0.43 2.08 0.651 7.37 2.33 14.5 4.92 21.6 7.98 2.49 1.04 4.97 2.02 7.5 2.96 24.5 9.16 24.5 9.16 32.8 16.4v2h-2v2c-3.13 1.86-5.37 2.2-9 2-0.0825-0.619-0.165-1.24-0.25-1.88-0.563-2.31-0.563-2.31-2.81-3.38-0.639-0.248-1.28-0.495-1.94-0.75 0.66-0.33 1.32-0.66 2-1 0.66 0.33 1.32 0.66 2 1v-2c-1.67-0.217-1.67-0.217-3.38-0.438-3.62-0.562-3.62-0.562-5.62-1.56v-2h-2v-2c-2.29-0.168-4.58-0.334-6.88-0.5-1.28-0.0928-2.55-0.186-3.87-0.281-3.7-0.287-3.7-0.287-7.26 0.344-2 0.438-2 0.438-4-0.562-0.0619-0.598-0.124-1.2-0.188-1.81-1.07-2.88-2.77-4.01-5.44-5.44-4.97-1.57-10.2-1-15.4-0.75h-3v-3c-2.32-1.63-2.32-1.63-5-3-0.99-0.66-1.98-1.32-3-2-0.99 0.33-1.98 0.66-3 1-0.846 0.144-1.69 0.289-2.56 0.438-2.6 0.374-2.6 0.374-4.44 2.56-0.99-0.33-1.98-0.66-3-1-2.33-0.0395-4.67-0.044-7 0-0.33-1.32-0.66-2.64-1-4l4 2c-0.656-3.61-0.656-3.61-2-7 4.94-1.21 8.21-0.629 13 1v-2c3.26-1.63 6.37 0.0975 9.69 1.12z" fill="#5B6DA1"/>
<path transform="translate(430,1342)" d="m0 0c4.77 1.42 8.98 3.47 13.3 5.88 5.47 2.98 10.9 5.71 16.7 8.12v2c0.99 0.33 1.98 0.66 3 1-4.54 0.0247-9.08 0.0428-13.6 0.0549-1.55 0.00504-3.09 0.0119-4.64 0.0205-2.22 0.0121-4.43 0.0178-6.65 0.0222-1.04 0.00774-1.04 0.00774-2.11 0.0156-1.66 1.96e-4 -3.33-0.0514-4.99-0.113-1-1-1-1-1.1-4.6 0.00667-1.49 0.0186-2.98 0.0352-4.46 0.00451-0.759 0.00902-1.52 0.0137-2.3 0.0118-1.88 0.0298-3.76 0.0488-5.64z" fill="#000002"/>
<path transform="translate(582,1265)" d="m0 0c4.44 0.493 5.92 1.92 9 5 2.64 0.797 2.64 0.797 5 1l-1 2c-2.94 0.414-2.94 0.414-6.56 0.625-1.2 0.0748-2.4 0.15-3.63 0.227-1.39 0.0735-1.39 0.0735-2.81 0.148 0.99 0.33 1.98 0.66 3 1v2h-2v2h-7c-1.84-3.78-2.16-5.95-1-10h6c0.33-1.32 0.66-2.64 1-4z" fill="#5C6EA2"/>
<path transform="translate(511,1252)" d="m0 0c0.66 0.66 1.32 1.32 2 2-0.375 2.12-0.375 2.12-1 4-0.969 0.124-1.94 0.247-2.94 0.375-1.52 0.309-1.52 0.309-3.06 0.625-0.33 0.66-0.66 1.32-1 2-2.29 0.414-2.29 0.414-5.06 0.625-0.919 0.0748-1.84 0.15-2.79 0.227-0.71 0.049-1.42 0.098-2.15 0.148 0.33 0.66 0.66 1.32 1 2-2.31 0.33-4.62 0.66-7 1 0-2 0-2 1.5-3.56 0.495-0.474 0.99-0.949 1.5-1.44v-1c6.44-0.495 6.44-0.495 13-1v-2h-8c0.66-0.99 1.32-1.98 2-3 3.85-0.285 7.31-0.181 11 1 0.33-0.66 0.66-1.32 1-2z" fill="#5C6EA2"/>
<path transform="translate(445,578)" d="m0 0c0.99 0.33 1.98 0.66 3 1 0.66 1.68 0.66 1.68 1.06 3.88 0.153 0.801 0.307 1.6 0.465 2.43 0.156 0.891 0.312 1.78 0.473 2.7 0.187 1 0.374 2.01 0.566 3.04 0.49 2.65 0.967 5.3 1.43 7.96h-3c-3.47-6.21-4.38-14-4-21z" fill="#5C6EA2"/>
<path transform="translate(927,251)" d="m0 0h1v7c1.98-0.267 1.98-0.267 4-1 0.33-0.99 0.66-1.98 1-3h3v6c-3.01 0.934-3.87 1.04-7 0-1.39-0.0667-2.79-0.0854-4.19-0.0625-1.26 0.0206-2.52 0.0412-3.81 0.0625 0.33-1.32 0.66-2.64 1-4 1.32-0.33 2.64-0.66 4-1 0.33-1.32 0.66-2.64 1-4z" fill="#5C6EA2"/>
<path transform="translate(987,234)" d="m0 0c6.68 1.04 12.7 2.4 19 5-0.66 0.66-1.32 1.32-2 2-6.6-0.236-12-2.36-18-5 0.33-0.66 0.66-1.32 1-2z" fill="#586B9E"/>
<path transform="translate(793,226)" d="m0 0v3c-0.99 0.33-1.98 0.66-3 1-0.33 2.31-0.66 4.62-1 7h-3c-0.33-2.97-0.66-5.94-1-9-1.32-0.33-2.64-0.66-4-1 4.46-1.81 7.31-2.12 12-1z" fill="#5C6EA2"/>
<path transform="translate(643 1306)" d="m0 0c1.45 0.0309 1.45 0.0309 2.94 0.0625v2c-8 2.91-16.7 2.84-25 1 2-2 2-2 5.66-2.16 1.47 0.0226 2.94 0.0556 4.4 0.0977 2.65 0.0619 5.29 0.0831 7.94 0.0625 1-1 1-1 4.06-1.06z" fill="#5C6EA2"/>
<path transform="translate(601,1275)" d="m0 0c0.99 0.495 0.99 0.495 2 1 0.625 2.56 0.625 2.56 1 5 0.33-0.33 0.66-0.66 1-1-0.286-1.68-0.618-3.34-1-5 2.64 0.66 5.28 1.32 8 2v5c-1.46 0.027-2.92 0.0464-4.38 0.0625-0.812 0.0116-1.62 0.0232-2.46 0.0352-2.16-0.0977-2.16-0.0977-4.16-1.1v-6z" fill="#5C6EA2"/>
<path transform="translate(977,264)" d="m0 0h8c0.312 2.31 0.312 2.31 0 5-2.31 1.88-2.31 1.88-5 3-0.99-0.33-1.98-0.66-3-1v-7z" fill="#5B6DA1"/>
<path transform="translate(824,311)" d="m0 0v2c-8.31 3.11-16.2 3.66-25 4-0.33-0.66-0.66-1.32-1-2 4.62-0.33 9.24-0.66 14-1v-2h2v2h3v-2c4.75-1 4.75-1 7-1z" fill="#5C6EA2"/>
<path transform="translate(647,1283)" d="m0 0c4.82-0.193 8.5 0.243 13 2-0.66 1.32-1.32 2.64-2 4-7.51-1.48-7.51-1.48-10-4.12-0.33-0.619-0.66-1.24-1-1.88z" fill="#5C6EA2"/>
<path transform="translate(748,736)" d="m0 0c2.29 0.141 4.58 0.288 6.88 0.438 1.28 0.0812 2.55 0.162 3.87 0.246 3.26 0.316 3.26 0.316 5.26 1.32v2c-1.32-0.33-2.64-0.66-4-1-0.33 0.66-0.66 1.32-1 2-1.26-0.124-2.52-0.247-3.81-0.375-1.06-0.104-1.06-0.104-2.14-0.211-2.04-0.414-2.04-0.414-5.04-2.41v-2z" fill="#5C6EA2"/>
<path transform="translate(860,765)" d="m0 0c1.46-0.027 2.92-0.0464 4.38-0.0625 0.812-0.0116 1.62-0.0232 2.46-0.0352 2.16 0.0977 2.16 0.0977 4.16 1.1v2h2c0.33-0.66 0.66-1.32 1-2v2c2.31 0.33 4.62 0.66 7 1-0.99 0.495-0.99 0.495-2 1-0.33 0.66-0.66 1.32-1 2v-2h-4c0.33 0.99 0.66 1.98 1 3h-2v-3c-1.65-0.33-3.3-0.66-5-1v-3c-0.763 0.206-1.53 0.413-2.31 0.625-2.69 0.375-2.69 0.375-5.69-1.62z" fill="#5C6EA2"/>
<path transform="translate(885,796)" d="m0 0c10.2-0.401 10.2-0.401 14 2 1.31 2.62 1.31 2.62 2 5-0.99 0.33-1.98 0.66-3 1l-3-3c0.66-0.33 1.32-0.66 2-1-2.39-0.642-4.67-1.09-7.12-1.44-2.88-0.562-2.88-0.562-4.88-2.56z" fill="#5C6EA2"/>
<path transform="translate(840,748)" d="m0 0c6.62-0.125 6.62-0.125 10 1-0.66 1.65-1.32 3.3-2 5-2.31-0.188-2.31-0.188-5-1-1.81-2.56-1.81-2.56-3-5z" fill="#5C6EA2"/>
<path transform="translate(1e3 1293)" d="m0 0h3v5h2l-1 2h-8v-5c0.99 0.33 1.98 0.66 3 1 0.33-0.99 0.66-1.98 1-3z" fill="#5C6EA2"/>
<path transform="translate(884,242)" d="m0 0c-0.33 0.66-0.66 1.32-1 2-4.37 1.29-9.84 2.08-14 0v3h-2v-4c5.72-0.832 11.2-1.12 17-1z" fill="#5C6EA2"/>
<path transform="translate(992,1279)" d="m0 0c0.33 0.66 0.66 1.32 1 2h2c0.33 1.65 0.66 3.3 1 5-2.17 0.955-3.56 1.14-5.82 0.398-1.74-0.757-3.46-1.57-5.18-2.4v-1h7v-4z" fill="#5C6EA2"/>
<path transform="translate(884,1248)" d="m0 0c-0.33 1.98-0.66 3.96-1 6-2.38 0.625-2.38 0.625-5 1-0.66-0.66-1.32-1.32-2-2h2c-0.33-0.99-0.66-1.98-1-3 3-2 3-2 7-2z" fill="#5C6EA2"/>
<path transform="translate(580,282)" d="m0 0c1.12 5.75 1.12 5.75 0 8h-4c-0.217-1.18-0.217-1.18-0.438-2.38-0.44-2.59-0.44-2.59-1.56-4.62 2-1 2-1 6-1z" fill="#5C6EA2"/>
<path transform="translate(710 1296)" d="m0 0c1.45 0.0309 1.45 0.0309 2.94 0.0625 1.46 2.65 2 3.89 2 7-4 0-4 0-5.48-1.31-1.17-1.56-2.34-3.12-3.52-4.69 1-1 1-1 4.06-1.06z" fill="#5C6EA2"/>
<path transform="translate(684,1295)" d="m0 0c-0.66 1.32-1.32 2.64-2 4h-9c2.02-6.07 5.58-5.02 11-4z" fill="#5C6EA2"/>
<path transform="translate(925,812)" d="m0 0c2.38 0.438 2.38 0.438 5 2 1.07 2.94 1.57 5.91 2 9h-4c-0.33-0.99-0.66-1.98-1-3h3c-0.825-0.949-1.65-1.9-2.5-2.88-2.5-2.88-2.5-2.88-2.5-5.12z" fill="#5C6EA2"/>
<path transform="translate(612,416)" d="m0 0h1v5h2v-2l2 1c-1.32 2.64-2.64 5.28-4 8h-2c-1.12-4.69-0.806-7.54 1-12z" fill="#5C6EA2"/>
<path transform="translate(810,1381)" d="m0 0c-0.33 1.32-0.66 2.64-1 4h-8c-0.33-0.99-0.66-1.98-1-3 3.44-0.625 6.49-1 10-1z" fill="#5C6EA2"/>
<path transform="translate(467,1268)" d="m0 0h1c0.33 2.31 0.66 4.62 1 7h-2c0.0928 1.89 0.0928 1.89 0.188 3.81 0.00691 3.9 0.00691 3.9-1.56 6.19-1.62 1-1.62 1-3.62 1v-4h4c-0.0309-1.79-0.0309-1.79-0.0625-3.62-0.00633-3.56 0.364-6.88 1.06-10.4z" fill="#5C6EA2"/>
<path transform="translate(658,1292)" d="m0 0c0.99 0.33 1.98 0.66 3 1-0.33 2.97-0.66 5.94-1 9-0.99 0.33-1.98 0.66-3 1-0.222-1.46-0.427-2.92-0.625-4.38-0.116-0.812-0.232-1.62-0.352-2.46-0.00773-0.714-0.0155-1.43-0.0234-2.16 0.66-0.66 1.32-1.32 2-2z" fill="#5C6EA2"/>
<path transform="translate(762,1382)" d="m0 0c1.32 0.33 2.64 0.66 4 1v2h2v-2c1.32 0.33 2.64 0.66 4 1v2c-2.52 1.26-4.31 1.1-7.12 1.06-0.91-0.00902-1.82-0.018-2.76-0.0273-0.699-0.0116-1.4-0.0232-2.12-0.0352 1.32-0.66 2.64-1.32 4-2-0.33-0.33-0.66-0.66-1-1-0.33-0.66-0.66-1.32-1-2z" fill="#5C6EA2"/>
<path transform="translate(970,240)" d="m0 0 4 2c0.33-0.66 0.66-1.32 1-2 2.97 0.495 2.97 0.495 6 1 0.33 1.32 0.66 2.64 1 4-1.07-0.165-2.14-0.33-3.25-0.5-3.78-0.588-3.78-0.588-7.75-0.5-0.33-1.32-0.66-2.64-1-4z" fill="#5C6EA2"/>
<path transform="translate(648,683)" d="m0 0c3.63 0.33 7.26 0.66 11 1 0.33 1.32 0.66 2.64 1 4-4.57-0.549-8.67-1.42-13-3 0.33-0.66 0.66-1.32 1-2z" fill="#5C6EA2"/>
<path transform="translate(517,1247)" d="m0 0c0.33 0.66 0.66 1.32 1 2h2c-0.33 0.66-0.66 1.32-1 2-6.14 1.51-6.14 1.51-9.44-0.438l-1.56-1.56c2.05-0.228 4.1-0.456 6.15-0.684 1.86-0.135 1.86-0.135 2.85-1.32z" fill="#5C6EA2"/>
<path transform="translate(1108,1102)" d="m0 0c0.553 2.08 1 3.84 1 6-3 1-3 1-6 0 0.33-1.65 0.66-3.3 1-5 1.98 0.495 1.98 0.495 4 1v-2z" fill="#5C6EA2"/>
<path transform="translate(577,435)" d="m0 0c1.65 0.33 3.3 0.66 5 1-0.33 1.32-0.66 2.64-1 4h-5c0.33-1.65 0.66-3.3 1-5z" fill="#5C6EA2"/>
<path transform="translate(592,522)" d="m0 0 1 4z" fill="#000002"/>
<path transform="translate(711,1407)" d="m0 0c3 1 3 1 3 1z" fill="#000002"/>
<path transform="translate(789,332)" d="m0 0c3 1 3 1 3 1z" fill="#000002"/>
</svg>
